<svg id="visual" viewBox="0 0 900 600" width="900" height="600" xmlns="http://www.w3.org/2000/svg" xmlns:xlink="http://www.w3.org/1999/xlink" version="1.1"><rect width="900" height="600" fill="#931F1F"></rect><g><g transform="translate(458 516)"><path d="M89.2 -25.3C102.5 12 91.2 60.9 60.6 83C30.1 105.1 -19.6 100.3 -54.2 75C-88.7 49.8 -108.1 4.2 -96.6 -30.7C-85 -65.6 -42.5 -89.7 -2.3 -89C38 -88.3 75.9 -62.6 89.2 -25.3Z" stroke="#F7760E" fill="none" stroke-width="20"></path></g><g transform="translate(884 382)"><path d="M78.6 -27.5C89.1 6.8 76.1 46.8 46.6 69.6C17 92.3 -29 97.9 -58.3 77.3C-87.6 56.7 -100.2 10 -87.7 -27C-75.1 -64 -37.6 -91.4 -1.8 -90.8C34.1 -90.2 68.1 -61.7 78.6 -27.5Z" stroke="#F7760E" fill="none" stroke-width="20"></path></g><g transform="translate(11 569)"><path d="M51.2 -19.2C56.7 0.3 44.9 22.9 27.3 35.2C9.7 47.4 -13.8 49.3 -28.7 38.6C-43.6 28 -50.1 4.8 -43.9 -15.7C-37.7 -36.2 -18.9 -54 2 -54.7C22.8 -55.3 45.7 -38.8 51.2 -19.2Z" stroke="#F7760E" fill="none" stroke-width="20"></path></g></g></svg>