<svg id="visual" viewBox="0 0 900 600" width="900" height="600" xmlns="http://www.w3.org/2000/svg" xmlns:xlink="http://www.w3.org/1999/xlink" version="1.1"><rect x="0" y="0" width="900" height="600" fill="#001220"></rect><defs><linearGradient id="grad1_0" x1="33.3%" y1="0%" x2="100%" y2="100%"><stop offset="20%" stop-color="#001220" stop-opacity="1"></stop><stop offset="80%" stop-color="#001220" stop-opacity="1"></stop></linearGradient></defs><defs><linearGradient id="grad2_0" x1="0%" y1="0%" x2="66.7%" y2="100%"><stop offset="20%" stop-color="#001220" stop-opacity="1"></stop><stop offset="80%" stop-color="#001220" stop-opacity="1"></stop></linearGradient></defs><g transform="translate(900, 0)"><path d="M0 486.7C-65.5 482.3 -131 477.9 -186.3 449.7C-241.5 421.5 -286.4 369.5 -318.2 318.2C-350 266.9 -368.6 216.3 -394.5 163.4C-420.4 110.5 -453.6 55.2 -486.7 0L0 0Z" fill="#FBAE3C"></path></g><g transform="translate(0, 600)"><path d="M0 -486.7C50.1 -450.9 100.1 -415 164.9 -398.2C229.8 -381.4 309.4 -383.6 344.2 -344.2C379 -304.8 369 -223.9 385.3 -159.6C401.5 -95.3 444.1 -47.6 486.7 0L0 0Z" fill="#FBAE3C"></path></g></svg>