<svg id="visual" viewBox="0 0 900 600" width="900" height="600" xmlns="http://www.w3.org/2000/svg" xmlns:xlink="http://www.w3.org/1999/xlink" version="1.1"><rect width="900" height="600" fill="#001829"></rect><g><g transform="translate(544 154)"><path d="M0 -71.4L71.4 0L0 71.4L-71.4 0Z" fill="none" stroke="#297EA6" stroke-width="2"></path></g><g transform="translate(4 388)"><path d="M0 -47L47 0L0 47L-47 0Z" fill="none" stroke="#297EA6" stroke-width="2"></path></g><g transform="translate(782 312)"><path d="M0 -69L69 0L0 69L-69 0Z" fill="none" stroke="#297EA6" stroke-width="2"></path></g><g transform="translate(568 451)"><path d="M0 -40L40 0L0 40L-40 0Z" stroke="#297EA6" fill="none" stroke-width="2"></path></g><g transform="translate(138 5)"><path d="M0 -43L43 0L0 43L-43 0Z" stroke="#297EA6" fill="none" stroke-width="2"></path></g><g transform="translate(425 528)"><path d="M0 -49L49 0L0 49L-49 0Z" stroke="#297EA6" fill="none" stroke-width="2"></path></g><g transform="translate(783 567)"><path d="M0 -58L58 0L0 58L-58 0Z" stroke="#297EA6" fill="none" stroke-width="2"></path></g><g transform="translate(316 332)"><path d="M0 -62L62 0L0 62L-62 0Z" stroke="#297EA6" fill="none" stroke-width="2"></path></g><g transform="translate(804 113)"><path d="M0 -51L51 0L0 51L-51 0Z" stroke="#297EA6" fill="none" stroke-width="2"></path></g><g transform="translate(327 10)"><path d="M0 -62L62 0L0 62L-62 0Z" stroke="#297EA6" fill="none" stroke-width="2"></path></g><g transform="translate(567 297)"><path d="M0 -47L47 0L0 47L-47 0Z" stroke="#297EA6" fill="none" stroke-width="2"></path></g><g transform="translate(123 522)"><path d="M0 -49L49 0L0 49L-49 0Z" stroke="#297EA6" fill="none" stroke-width="2"></path></g><g transform="translate(198 227)"><path d="M0 -45L45 0L0 45L-45 0Z" stroke="#297EA6" fill="none" stroke-width="2"></path></g><g transform="translate(22 194)"><path d="M0 -70L70 0L0 70L-70 0Z" stroke="#297EA6" fill="none" stroke-width="2"></path></g><g transform="translate(560 596)"><path d="M0 -65L65 0L0 65L-65 0Z" stroke="#297EA6" fill="none" stroke-width="2"></path></g><g transform="translate(401 136)"><path d="M0 -45L45 0L0 45L-45 0Z" stroke="#297EA6" fill="none" stroke-width="2"></path></g><g transform="translate(655 45)"><path d="M0 -70L70 0L0 70L-70 0Z" stroke="#297EA6" fill="none" stroke-width="2"></path></g><g transform="translate(266 497)"><path d="M0 -57L57 0L0 57L-57 0Z" stroke="#297EA6" fill="none" stroke-width="2"></path></g><g transform="translate(680 207)"><path d="M0 -52L52 0L0 52L-52 0Z" stroke="#297EA6" fill="none" stroke-width="2"></path></g><g transform="translate(895 426)"><path d="M0 -60L60 0L0 60L-60 0Z" stroke="#297EA6" fill="none" stroke-width="2"></path></g><g transform="translate(486 9)"><path d="M0 -63L63 0L0 63L-63 0Z" stroke="#297EA6" fill="none" stroke-width="2"></path></g></g></svg>